<?xml version="1.0" encoding="UTF-8" standalone="no"?><svg xmlns="http://www.w3.org/2000/svg" xmlns:xlink="http://www.w3.org/1999/xlink" contentScriptType="application/ecmascript" contentStyleType="text/css" height="337px" preserveAspectRatio="none" style="width:159px;height:337px;" version="1.1" viewBox="0 0 159 337" width="159px" zoomAndPan="magnify"><defs><filter height="300%" id="f1l1bieok43nm1" width="300%" x="-1" y="-1"><feGaussianBlur result="blurOut" stdDeviation="2.0"/><feColorMatrix in="blurOut" result="blurOut2" type="matrix" values="0 0 0 0 0 0 0 0 0 0 0 0 0 0 0 0 0 0 .4 0"/><feOffset dx="4.0" dy="4.0" in="blurOut2" result="blurOut3"/><feBlend in="SourceGraphic" in2="blurOut3" mode="normal"/></filter></defs><g><text fill="#000000" font-family="sans-serif" font-size="14" font-weight="bold" lengthAdjust="spacingAndGlyphs" textLength="57" x="52" y="24.5332">Process</text><line style="stroke: #A80036; stroke-width: 1.0; stroke-dasharray: 5.0,5.0;" x1="33" x2="33" y1="119.2188" y2="248.9766"/><line style="stroke: #A80036; stroke-width: 1.0; stroke-dasharray: 5.0,5.0;" x1="127" x2="127" y1="119.2188" y2="248.9766"/><text fill="#000000" font-family="sans-serif" font-size="14" lengthAdjust="spacingAndGlyphs" textLength="45" x="8" y="116.1426">Actor 1</text><ellipse cx="33.5" cy="44.6094" fill="#FEFECE" filter="url(#f1l1bieok43nm1)" rx="8" ry="8" style="stroke: #A80036; stroke-width: 2.0;"/><path d="M33.5,52.6094 L33.5,79.6094 M20.5,60.6094 L46.5,60.6094 M33.5,79.6094 L20.5,94.6094 M33.5,79.6094 L46.5,94.6094 " fill="none" filter="url(#f1l1bieok43nm1)" style="stroke: #A80036; stroke-width: 2.0;"/><text fill="#000000" font-family="sans-serif" font-size="14" lengthAdjust="spacingAndGlyphs" textLength="45" x="8" y="262.5098">Actor 1</text><ellipse cx="33.5" cy="275.5859" fill="#FEFECE" filter="url(#f1l1bieok43nm1)" rx="8" ry="8" style="stroke: #A80036; stroke-width: 2.0;"/><path d="M33.5,283.5859 L33.5,310.5859 M20.5,291.5859 L46.5,291.5859 M33.5,310.5859 L20.5,325.5859 M33.5,310.5859 L46.5,325.5859 " fill="none" filter="url(#f1l1bieok43nm1)" style="stroke: #A80036; stroke-width: 2.0;"/><text fill="#000000" font-family="sans-serif" font-size="14" lengthAdjust="spacingAndGlyphs" textLength="45" x="102" y="116.1426">Actor 2</text><ellipse cx="127.5" cy="44.6094" fill="#FEFECE" filter="url(#f1l1bieok43nm1)" rx="8" ry="8" style="stroke: #A80036; stroke-width: 2.0;"/><path d="M127.5,52.6094 L127.5,79.6094 M114.5,60.6094 L140.5,60.6094 M127.5,79.6094 L114.5,94.6094 M127.5,79.6094 L140.5,94.6094 " fill="none" filter="url(#f1l1bieok43nm1)" style="stroke: #A80036; stroke-width: 2.0;"/><text fill="#000000" font-family="sans-serif" font-size="14" lengthAdjust="spacingAndGlyphs" textLength="45" x="102" y="262.5098">Actor 2</text><ellipse cx="127.5" cy="275.5859" fill="#FEFECE" filter="url(#f1l1bieok43nm1)" rx="8" ry="8" style="stroke: #A80036; stroke-width: 2.0;"/><path d="M127.5,283.5859 L127.5,310.5859 M114.5,291.5859 L140.5,291.5859 M127.5,310.5859 L114.5,325.5859 M127.5,310.5859 L140.5,325.5859 " fill="none" filter="url(#f1l1bieok43nm1)" style="stroke: #A80036; stroke-width: 2.0;"/><polygon fill="#A80036" points="115.5,180.2188,125.5,184.2188,115.5,188.2188,119.5,184.2188" style="stroke: #A80036; stroke-width: 1.0;"/><line style="stroke: #A80036; stroke-width: 1.0;" x1="33.5" x2="121.5" y1="184.2188" y2="184.2188"/><text fill="#000000" font-family="sans-serif" font-size="13" lengthAdjust="spacingAndGlyphs" textLength="56" x="40.5" y="146.7139">Operation</text><text fill="#000000" font-family="sans-serif" font-size="13" lengthAdjust="spacingAndGlyphs" textLength="0" x="44.5" y="163.0654"/><a target="_top" xlink:actuate="onRequest" xlink:href="#r1" xlink:show="new" xlink:title="#r1" xlink:type="simple"><text fill="#0000FF" font-family="sans-serif" font-size="13" lengthAdjust="spacingAndGlyphs" text-decoration="underline" textLength="66" x="44.5" y="163.0654">Resource 1</text><line style="stroke: #0000FF; stroke-width: 1.0;" x1="44.5" x2="110.5" y1="165.0654" y2="165.0654"/></a><text fill="#000000" font-family="sans-serif" font-size="13" lengthAdjust="spacingAndGlyphs" textLength="0" x="44.5" y="179.417"/><polygon fill="#A80036" points="44.5,226.2734,34.5,230.2734,44.5,234.2734,40.5,230.2734" style="stroke: #A80036; stroke-width: 1.0;"/><line style="stroke: #A80036; stroke-width: 1.0;" x1="38.5" x2="126.5" y1="230.2734" y2="230.2734"/><text fill="#000000" font-family="sans-serif" font-size="13" lengthAdjust="spacingAndGlyphs" textLength="56" x="50.5" y="209.7686">Operation</text><text fill="#000000" font-family="sans-serif" font-size="13" lengthAdjust="spacingAndGlyphs" textLength="0" x="54.5" y="226.1201"/><!--
@startuml
title Process

actor "Actor 1" as a1
actor "Actor 2" as a2

    
title Process
    a1-> a2 : Operation\n [[#r1 Resource 1]]\n

    a2-> a1 : Operation\n

  
@enduml

PlantUML version 1.2018.01(Sun Jan 28 19:08:22 CET 2018)
(APACHE source distribution)
Java Runtime: Java(TM) SE Runtime Environment
JVM: Java HotSpot(TM) 64-Bit Server VM
Java Version: 1.8.0_151-b12
Operating System: Windows 10
OS Version: 10.0
Default Encoding: Cp1252
Language: en
Country: GB
--></g></svg>